<svg width="200" height="200" viewBox="0 0 200 200" fill="none" xmlns="http://www.w3.org/2000/svg">
<circle cx="100" cy="100" r="100" fill="#0D0E12"/>
<path d="M50 75.5C50 72.1848 51.317 69.0054 53.6612 66.6612C56.0054 64.317 59.1848 63 62.5 63H137.5C140.815 63 143.995 64.317 146.339 66.6612C148.683 69.0054 150 72.1848 150 75.5V125.5C150 128.815 148.683 131.995 146.339 134.339C143.995 136.683 140.815 138 137.5 138H62.5C59.1848 138 56.0054 136.683 53.6612 134.339C51.317 131.995 50 128.815 50 125.5V75.5ZM62.5 69.25C60.8424 69.25 59.2527 69.9085 58.0806 71.0806C56.9085 72.2527 56.25 73.8424 56.25 75.5V76.8563L100 103.106L143.75 76.8563V75.5C143.75 73.8424 143.092 72.2527 141.919 71.0806C140.747 69.9085 139.158 69.25 137.5 69.25H62.5ZM143.75 84.1437L114.325 101.8L143.75 119.906V84.1437ZM143.537 127.119L108.288 105.425L100 110.394L91.7125 105.425L56.4625 127.113C56.8177 128.442 57.602 129.618 58.6937 130.457C59.7854 131.295 61.1234 131.75 62.5 131.75H137.5C138.876 131.75 140.213 131.296 141.305 130.459C142.396 129.622 143.181 128.448 143.537 127.119ZM56.25 119.906L85.675 101.8L56.25 84.1437V119.906Z" fill="#D9D9D9"/>
</svg>
