<svg width="200" height="200" viewBox="0 0 200 200" fill="none" xmlns="http://www.w3.org/2000/svg">
<circle cx="100" cy="100" r="100" fill="#0D0E12"/>
<path d="M100 55C75.1375 55 55 75.1375 55 100C55 119.912 67.8812 136.731 85.7687 142.694C88.0187 143.088 88.8625 141.738 88.8625 140.556C88.8625 139.488 88.8063 135.944 88.8063 132.175C77.5 134.256 74.575 129.419 73.675 126.887C73.1687 125.594 70.975 121.6 69.0625 120.531C67.4875 119.687 65.2375 117.606 69.0063 117.55C72.55 117.494 75.0813 120.812 75.925 122.162C79.975 128.969 86.4438 127.056 89.0313 125.875C89.425 122.95 90.6062 120.981 91.9 119.856C81.8875 118.731 71.425 114.85 71.425 97.6375C71.425 92.7437 73.1688 88.6937 76.0375 85.5437C75.5875 84.4187 74.0125 79.8062 76.4875 73.6187C76.4875 73.6187 80.2563 72.4375 88.8625 78.2313C92.4625 77.2188 96.2875 76.7125 100.113 76.7125C103.938 76.7125 107.763 77.2188 111.363 78.2313C119.969 72.3813 123.738 73.6187 123.738 73.6187C126.213 79.8062 124.638 84.4187 124.188 85.5437C127.056 88.6937 128.8 92.6875 128.8 97.6375C128.8 114.906 118.281 118.731 108.269 119.856C109.9 121.262 111.306 123.963 111.306 128.181C111.306 134.2 111.25 139.038 111.25 140.556C111.25 141.738 112.094 143.144 114.344 142.694C123.278 139.679 131.041 133.938 136.54 126.279C142.04 118.62 144.998 109.429 145 100C145 75.1375 124.863 55 100 55Z" fill="#D9D9D9"/>
</svg>
