<svg width="200" height="200" viewBox="0 0 200 200" fill="none" xmlns="http://www.w3.org/2000/svg">
<circle cx="100" cy="100" r="100" fill="#0D0E12"/>
<g clip-path="url(#clip0_1_21)">
<path d="M60 65.73C60 62.565 62.63 60 65.875 60H134.125C137.37 60 140 62.565 140 65.73V134.27C140 137.435 137.37 140 134.125 140H65.875C62.63 140 60 137.435 60 134.27V65.73ZM84.715 126.97V90.845H72.71V126.97H84.715ZM78.715 85.91C82.9 85.91 85.505 83.14 85.505 79.67C85.43 76.125 82.905 73.43 78.795 73.43C74.685 73.43 72 76.13 72 79.67C72 83.14 74.605 85.91 78.635 85.91H78.715ZM103.255 126.97V106.795C103.255 105.715 103.335 104.635 103.655 103.865C104.52 101.71 106.495 99.475 109.815 99.475C114.16 99.475 115.895 102.785 115.895 107.645V126.97H127.9V106.25C127.9 95.15 121.98 89.99 114.08 89.99C107.71 89.99 104.855 93.49 103.255 95.955V96.08H103.175C103.202 96.0383 103.228 95.9966 103.255 95.955V90.845H91.255C91.405 94.235 91.255 126.97 91.255 126.97H103.255Z" fill="#D9D9D9"/>
</g>
<defs>
<clipPath id="clip0_1_21">
<rect width="80" height="80" fill="white" transform="translate(60 60)"/>
</clipPath>
</defs>
</svg>
