<svg width="200" height="200" viewBox="0 0 200 200" fill="none" xmlns="http://www.w3.org/2000/svg">
<circle cx="100" cy="100" r="100" fill="#0D0E12"/>
<g clip-path="url(#clip0_1_19)">
<path d="M75.5538 62.4698C75.2217 62.0427 74.8026 61.691 74.3242 61.4383C73.8458 61.1856 73.3191 61.0376 72.7791 61.0041C72.2391 60.9705 71.6981 61.0523 71.1921 61.2439C70.6862 61.4355 70.2267 61.7326 69.8444 62.1154L64.0281 67.9373C61.3113 70.6598 60.31 74.5129 61.4969 77.8936C66.4229 91.8862 74.4361 104.59 84.9419 115.064C95.4152 125.569 108.119 133.582 122.112 138.509C125.493 139.695 129.346 138.694 132.068 135.977L137.884 130.161C138.267 129.779 138.564 129.319 138.756 128.813C138.948 128.307 139.029 127.766 138.996 127.226C138.962 126.686 138.814 126.16 138.562 125.681C138.309 125.203 137.957 124.784 137.53 124.452L124.553 114.36C124.097 114.006 123.566 113.761 123.001 113.642C122.436 113.523 121.851 113.534 121.291 113.674L108.972 116.751C107.328 117.162 105.605 117.14 103.972 116.688C102.338 116.235 100.85 115.368 99.6513 114.169L85.8363 100.349C84.6369 99.1506 83.7681 97.6625 83.3147 96.0291C82.8612 94.3957 82.8385 92.6727 83.2488 91.0279L86.3313 78.7092C86.4714 78.1489 86.4824 77.5641 86.3635 76.999C86.2447 76.4338 85.999 75.903 85.645 75.4467L75.5538 62.4698ZM65.5975 57.8742C66.5819 56.8895 67.7644 56.1255 69.0667 55.633C70.3689 55.1404 71.7611 54.9305 73.1507 55.0172C74.5403 55.1039 75.8955 55.4853 77.1264 56.1359C78.3573 56.7866 79.4357 57.6917 80.29 58.7911L90.3813 71.7623C92.2319 74.1417 92.8844 77.2411 92.1532 80.1661L89.0763 92.4848C88.9172 93.1229 88.9258 93.7912 89.1012 94.4249C89.2767 95.0587 89.613 95.6363 90.0775 96.1017L103.898 109.922C104.364 110.388 104.943 110.725 105.578 110.9C106.212 111.076 106.882 111.084 107.521 110.924L119.834 107.847C121.277 107.486 122.784 107.458 124.24 107.765C125.696 108.072 127.063 108.706 128.238 109.619L141.209 119.71C145.872 123.338 146.299 130.229 142.126 134.397L136.309 140.213C132.147 144.375 125.926 146.204 120.126 144.162C105.283 138.939 91.8059 130.441 80.695 119.299C69.5535 108.19 61.0559 94.7149 55.8325 79.8736C53.7963 74.0798 55.6244 67.8529 59.7869 63.6904L65.6031 57.8742H65.5975Z" fill="#D9D9D9"/>
</g>
<defs>
<clipPath id="clip0_1_19">
<rect width="90" height="90" fill="white" transform="translate(55 55)"/>
</clipPath>
</defs>
</svg>
